<svg xmlns="http://www.w3.org/2000/svg" viewBox="0 0 100 100">
    <style>
        #bg { fill: #263f60; }
        #fg { fill: #fff; }
        @media (prefers-color-scheme: dark) {
            #bg { fill: #fff; }
            #fg { fill: #263f60; }
        }
    </style>
    <path id="bg" d="M24 0h52a24 24 45 0 1 24 24v52a24 24 135 0 1-24 24H24A24 24 45 0 1 0 76V24A24 24 135 0 1 24 0Z"/>
    <path id="fg" d="M20.7 68.7q-2.9 0-5.6-.7-2.7-.8-4.2-2l1.8-3.5q1.6 1.2 3.8 1.8 2.3.7 4.6.7 5.6 0 5.6-3.2 0-1.1-.7-1.7-.8-.7-2-1l-3.2-.6q-2.9-.5-4.7-1-1.8-.6-3.1-2t-1.3-4q0-3.2 2.7-5.1 2.7-2 7.2-2 2.4 0 4.8.6t3.9 1.6L28.4 50q-2.9-2-6.8-2-2.8 0-4.2 1-1.5.9-1.5 2.4 0 1.1.8 1.8t2 1l3.4.7q2.9.5 4.6 1.1 1.8.6 3 1.9 1.3 1.4 1.3 3.8 0 3.2-2.7 5.2-2.8 1.8-7.6 1.8zM35 54.3h12V58H35zM76.6 35v33.5h-4.1v-3.8q-1.4 2-3.7 3-2.2 1-4.8 1-3.5 0-6.2-1.5-2.8-1.5-4.3-4.3-1.6-2.7-1.6-6.3 0-3.6 1.6-6.4 1.5-2.7 4.3-4.3 2.7-1.5 6.2-1.5 2.6 0 4.7 1 2.2 1 3.6 2.8V35.1zM64.3 65q2.3 0 4.1-1 1.9-1.1 3-3 1-2 1-4.4 0-2.5-1-4.4-1.1-2-3-3-1.8-1-4-1-2.3 0-4.2 1-1.8 1-2.9 3-1 1.9-1 4.4 0 2.4 1 4.4 1.1 1.9 3 3 1.8 1 4 1zm34.5 2q-1 .9-2.3 1.3-1.4.4-2.9.4-3.6 0-5.6-1.9-2-2-2-5.5V48.2h-4v-3.6h4v-5.2h4.4v5.2h6.8v3.6h-6.8V61q0 2 .9 3 1 1 2.8 1 2 0 3.4-1.1z" transform="translate(-4.9 -2)"/>
</svg>